<svg xmlns="http://www.w3.org/2000/svg" viewBox="0 0 67 59" width="67" height="59" fill="none"><g xmlns="http://www.w3.org/2000/svg" id="ë³ìë¦¬=ë¬¼ë³ìë¦¬">
<path id="Star 5" d="M43.0125 38.0438C43.0125 38.0438 45.4389 34.2132 44.8886 31.6822C44.3382 29.1511 40.5402 26.6739 40.5402 26.6739C40.5402 26.6739 44.3709 29.1004 46.9019 28.55C49.4329 27.9997 51.9101 24.2016 51.9101 24.2016C51.9101 24.2016 49.4837 28.0323 50.034 30.5633C50.5844 33.0944 54.3824 35.5716 54.3824 35.5716C54.3824 35.5716 50.5518 33.1451 48.0207 33.6955C45.4897 34.2458 43.0125 38.0438 43.0125 38.0438Z" fill="#71FFFD" />
<path id="Vector" d="M42.9966 14.0219C46.5376 13.5844 50.2583 14.3405 53.5079 16.4292C60.8332 21.1379 62.9924 30.8387 58.3276 38.0957C53.6629 45.3527 43.9414 47.4168 36.616 42.7081C33.4512 40.6738 31.0698 37.5897 29.9659 34.2939C37.8015 29.382 42.4256 22.7763 42.9949 14.0245L42.9966 14.0219Z" stroke="#71FFFD" stroke-linecap="round" stroke-linejoin="round" />
<path id="Vector_2" d="M28.484 21.5932C28.8517 20.9687 29.247 20.3246 29.6675 19.6704C32.5447 15.1943 35.4809 11.9539 36.2277 12.434C36.9746 12.9141 35.246 16.9307 32.3689 21.4068C29.4917 25.8828 26.5555 29.1232 25.8087 28.6431C25.5995 28.5086 25.5847 28.0949 25.7358 27.4697" stroke="#71FFFD" stroke-linecap="round" stroke-linejoin="round" />
<path id="Vector_3" d="M25.9611 28.6997C25.9611 28.6997 28.4301 28.6025 29.0477 30.5528C29.6654 32.5032 29.9677 34.2919 29.9677 34.2919" stroke="#71FFFD" stroke-linecap="round" stroke-linejoin="round" />
<path id="Vector_4" d="M36.2263 12.4359C36.2263 12.4359 37.8621 14.1649 39.1193 14.2469C40.3765 14.3289 42.9913 14.0222 42.9913 14.0222" stroke="#71FFFD" stroke-linecap="round" stroke-linejoin="round" />
<path id="Vector_5" d="M28.2881 29.3579C28.2881 29.3579 31.3747 28.2241 34.6945 23.0595C38.0143 17.8948 38.4588 14.1757 38.4588 14.1757" stroke="#71FFFD" stroke-linecap="round" stroke-linejoin="round" />
<path id="Vector_6" d="M29.1465 30.8442C29.1465 30.8442 32.6162 29.9006 36.3241 24.132C40.0321 18.3635 39.9227 14.3706 39.9227 14.3706" stroke="#71FFFD" stroke-linecap="round" stroke-linejoin="round" />
<path id="Vector_7" d="M58.7104 21.9516C58.7104 21.9516 57.8448 20.1076 57.2714 17.7216C55.3892 9.9131 57.037 9.17198 53.3692 5.20116C49.2682 0.75725 43.5013 2.67211 41.9033 6.18876C40.5655 9.13163 41.497 10.8907 42.1879 11.8887C43.0265 13.1052 43.8516 13.7254 44.9047 13.7698C45.9578 13.8142 46.7583 13.1161 46.9482 11.8832C47.1381 10.6504 46.4127 9.93326 45.4767 9.42144C44.5407 8.90961 43.6715 9.73201 43.5962 10.7167C43.5304 11.5876 44.8562 12.2265 45.2253 11.4719" stroke="#71FFFD" stroke-miterlimit="10" />
<path id="Vector_8" d="M55.3579 17.7129C55.3579 17.7129 54.4932 15.7685 54.2635 12.9409C54.0338 10.1134 53.0353 8.1616 49.6655 6.76652C46.2956 5.37145 44.7347 6.08228 44.0635 7.15551C43.1209 8.65685 43.7673 10.1316 43.7673 10.1316" stroke="#71FFFD" stroke-miterlimit="10" />
<path id="Vector_9" d="M29.9594 24.7555C29.9594 24.7555 26.3298 25.1735 22.6459 31.5975C21.8397 33.0031 21.1667 34.9584 20.8143 36.7119C19.7026 42.2666 20.0461 47.6189 23.6944 49.2678C27.7034 51.0775 28.5606 46.6056 28.5606 46.6056C28.5606 46.6056 28.658 43.8049 26.3273 43.7103C23.9966 43.6157 23.7289 45.1616 24.0484 46.2016C24.368 47.2417 25.5809 47.8642 26.3313 47.6691C27.0817 47.474 27.0227 46.1859 27.0227 46.1859" stroke="#71FFFD" stroke-miterlimit="10" />
<path id="Vector_10" d="M26.632 47.545C26.632 47.545 25.79 48.2726 25.0481 48.2448C24.3062 48.2171 22.4883 47.4528 22.2276 45.541C22.1298 44.8082 22.3051 42.649 24.4852 42.0928C26.2619 41.6404 29.2365 42.0141 30.2401 45.006C31.318 48.2141 29.5172 52.7682 25.8754 53.182C22.2336 53.5958 18.271 49.6002 17.1749 46.1933C15.9139 42.2687 16.0094 40.0357 17.6984 34.6948C19.3351 29.5225 23.0651 27.0095 25.3453 25.3311C27.6255 23.6528 31.0731 23.32 31.0731 23.32" stroke="#71FFFD" stroke-miterlimit="10" />
<path id="Vector_11" d="M31.6994 22.5629C31.6994 22.5629 24.2315 22.6059 18.0742 29.9665C14.3144 34.4591 13.1881 48.4558 19.5879 53.3294C25.3924 57.7491 27.6514 56.8956 31.1032 52.5793C32.9126 50.3176 33.4146 48.0054 33.3221 46.8043C33.1327 44.3508 32.373 43.2037 31.0068 42.1908C28.0711 40.0155 26.0487 39.9769 24.2507 41.4C22.5518 42.7446 22.1935 44.7226 22.1935 44.7226" stroke="#71FFFD" stroke-miterlimit="10" />
<path id="Vector_12" d="M32.0085 21.9565C32.0085 21.9565 28.6131 21.0204 24.9601 22.3889C21.3071 23.7575 19.7526 24.5922 17.7748 22.9354C16.1788 21.5989 16.5503 19.7342 17.7165 18.6535C18.8827 17.5729 21.2768 18.483 21.3362 19.5842C21.3956 20.6853 19.3774 20.5296 19.3774 20.5296C19.3774 20.5296 20.3195 22.2431 21.6769 21.843C23.7262 21.2402 23.9777 19.3059 22.7199 17.5654C21.4621 15.8249 18.0739 14.6913 15.9024 17.5398C13.7308 20.3884 14.4131 22.5 15.6966 24.0025C16.9802 25.505 19.5296 25.83 19.5296 25.83C19.5296 25.83 15.4917 28.4146 13.8407 33.8884C12.1897 39.3623 12.9106 50.2234 17.8652 53.6888C22.8197 57.1542 26.7595 56.1721 26.7595 56.1721" stroke="#71FFFD" stroke-linecap="round" stroke-linejoin="round" />
<path id="Vector_13" d="M16.3398 52.4168C16.3398 52.4168 13.4881 53.3422 11.2973 52.2671C9.10657 51.1921 7.73887 49.7215 7.9246 48.1342C8.11034 46.5468 10.0516 45.3318 10.9425 45.9719C11.8335 46.612 12.3205 47.2169 11.9802 47.9676C11.7191 48.5483 11.1223 48.8946 10.655 48.5793C10.0482 48.1667 10.6429 47.2764 10.341 47.0824C10.153 46.9615 8.64894 48.6259 10.4022 49.7529C12.1554 50.8799 14.2288 49.6338 13.6486 46.7868C13.0684 43.9398 11.1415 43.2402 9.02985 43.8179C6.95734 44.3871 4.26631 48.0845 7.90651 51.8654C11.1112 55.1942 15.2839 56.237 18.8845 54.5016" stroke="#71FFFD" stroke-miterlimit="10" />
<path id="Vector_14" d="M11.3039 54.4121C11.3039 54.4121 8.23541 55.3255 5.37668 53.2634C3.93408 52.2238 3.78518 50.8368 4.19812 50.1478C4.83711 49.0838 6.1715 49.1331 6.58618 50.4851C6.6906 50.8292 6.30187 51.137 6.07979 51.2263C5.72075 51.3773 5.31308 50.9169 5.31308 50.9169" stroke="#71FFFD" stroke-linecap="round" stroke-linejoin="round" />
</g>
</svg>