<svg preserveAspectRatio="none" overflow="visible" style="display: block;" width="42.3261" height="53.112" viewBox="0 0 42.3261 53.112" fill="none" xmlns="http://www.w3.org/2000/svg">
<g id="&#236;&#150;&#145; &#235;&#191;&#148;">
<path id="Vector 97" d="M2.57002 35.4634C3.17837 35.6267 4.55151 35.8552 5.17724 35.4634" stroke="url(#paint0_linear_0_737)" stroke-width="2" stroke-linecap="round" stroke-linejoin="round"/>
<path id="Vector 83" d="M14.1305 37.6175C13.667 34.8753 13.8027 29.2902 19.2952 28.9768" stroke="url(#paint1_linear_0_737)" stroke-width="2" stroke-linecap="round" stroke-linejoin="round"/>
<path id="Vector 84" d="M12.6709 38.6028C13.0768 38.9589 13.6682 38.8728 13.9917 38.4104C14.3152 37.9481 14.2484 37.2846 13.8424 36.9285L13.2566 37.7657L12.6709 38.6028ZM13.1919 28.1873C13.5695 27.7799 13.5869 27.1108 13.2307 26.693C12.8745 26.2752 12.2796 26.2668 11.902 26.6742L12.547 27.4307L13.1919 28.1873ZM13.2566 37.7657L13.8424 36.9285C12.9998 36.1893 11.9815 34.8523 11.6113 33.2946C11.2645 31.8355 11.4512 30.0655 13.1919 28.1873L12.547 27.4307L11.902 26.6742C9.67075 29.0817 9.2665 31.6495 9.79465 33.8716C10.2994 35.9952 11.6219 37.6827 12.6709 38.6028L13.2566 37.7657Z" fill="url(#paint2_linear_0_737)"/>
<path id="Vector 85" d="M11.4364 39.4215C9.83255 39.9391 6.57906 39.441 6.39576 33.3074" stroke="url(#paint3_linear_0_737)" stroke-width="2" stroke-linecap="round" stroke-linejoin="round"/>
<path id="Vector 86" d="M4.40894 39.7128C5.01729 41.1819 7.47308 44.747 10.7408 42.7099" stroke="url(#paint4_linear_0_737)" stroke-width="2" stroke-linecap="round" stroke-linejoin="round"/>
<path id="Vector 87" d="M12.2847 45.5139C12.4802 44.9974 12.2199 44.4202 11.7034 44.2247C11.1869 44.0292 10.6097 44.2894 10.4142 44.8059L11.3494 45.1599L12.2847 45.5139ZM5.59981 46.4233L5.37994 47.3988C6.09003 47.5589 6.80508 47.7369 7.4253 47.8571C8.05208 47.9785 8.6917 48.065 9.29965 48.0172C9.93183 47.9675 10.5499 47.771 11.0928 47.32C11.6212 46.8809 12.0003 46.2653 12.2847 45.5139L11.3494 45.1599L10.4142 44.8059C10.2055 45.3572 9.99151 45.6347 9.81468 45.7817C9.65225 45.9166 9.45274 45.999 9.14292 46.0233C8.80889 46.0496 8.38207 46.0053 7.80575 45.8936C7.22289 45.7807 6.59819 45.6232 5.81968 45.4478L5.59981 46.4233Z" fill="url(#paint5_linear_0_737)"/>
<path id="Vector 88" d="M10.4792 51.0346C11.5511 50.806 13.5557 49.7418 12.9995 47.313" stroke="url(#paint6_linear_0_737)" stroke-width="2" stroke-linecap="round" stroke-linejoin="round"/>
<path id="Vector 89" d="M15.0856 48.6842C15.636 49.3045 16.3371 50.8584 14.738 52.112" stroke="url(#paint7_linear_0_737)" stroke-width="2" stroke-linecap="round" stroke-linejoin="round"/>
<path id="Vector 90" d="M17.8669 48.978C18.1276 49.5004 18.4926 50.7409 17.8669 51.5244" stroke="url(#paint8_linear_0_737)" stroke-width="2" stroke-linecap="round" stroke-linejoin="round"/>
<path id="Vector 79" d="M41.3258 10.859C38.342 3.90553 27.757 -5.94458 9.26312 8.23666C5.67095 11.5991 -0.905041 21.1839 1.52837 32.6229C1.876 34.1572 2.87892 37.4742 4.40849 39.0412" stroke="url(#paint9_linear_0_737)" stroke-width="2" stroke-linecap="round" stroke-linejoin="round"/>
<path id="Vector 80" d="M10.9153 27.8234C13.2039 23.9712 19.0846 17.7555 24.299 23.71" stroke="url(#paint10_linear_0_737)" stroke-width="2" stroke-linecap="round" stroke-linejoin="round"/>
<path id="Vector 81" d="M4.40894 40.3838C4.61172 37.2171 6.55208 29.2153 12.0446 27.7266C15.2023 26.7799 21.8478 27.237 23.1688 36.6389C23.1398 40.0667 21.1525 46.746 13.4351 46.0408C13.1454 46.0082 12.3575 45.747 11.5232 44.9635" stroke="url(#paint11_linear_0_737)" stroke-width="2" stroke-linecap="round" stroke-linejoin="round"/>
<path id="Vector 82" d="M4.40909 39.0403C3.64431 46.4052 8.68435 50.4458 11.1757 51.5231C20.2141 54.0303 22.5316 47.7362 22.5606 44.2758C20.9383 47.7036 16.3901 52.6396 11.1757 44.9613C10.5384 43.0352 10.2197 38.9088 14.0436 37.812C15.4631 36.0817 18.9053 33.6584 22.8683 37.0274" stroke="url(#paint12_linear_0_737)" stroke-width="2" stroke-linecap="round" stroke-linejoin="round"/>
<path id="Vector 91" d="M20.1267 47.8027C20.4163 48.0312 20.8741 48.7625 20.3874 49.8594" stroke="url(#paint13_linear_0_737)" stroke-width="2" stroke-linecap="round" stroke-linejoin="round"/>
<path id="Vector 92" d="M22.7336 22.2395C22.1543 16.396 23.8113 4.49339 35.0745 3.63155" stroke="url(#paint14_linear_0_737)" stroke-width="2" stroke-linecap="round" stroke-linejoin="round"/>
<path id="Vector 93" d="M18.6978 20.9242C15.8334 18.597 13.2595 7.06092 21.3381 1.96821M12.1297 6.27743C10.3626 9.77051 7.89495 17.4869 15.1256 22.2662" stroke="url(#paint15_linear_0_737)" stroke-width="2" stroke-linecap="round" stroke-linejoin="round"/>
<path id="Vector 94" d="M5.44026 12.938C4.86087 16.431 5.63145 23.6327 13.3488 24.4945" stroke="url(#paint16_linear_0_737)" stroke-width="2" stroke-linecap="round" stroke-linejoin="round"/>
<path id="Vector 95" d="M1.61549 21.9471C2.39765 24.722 5.3525 29.6645 10.9146 27.2357" stroke="url(#paint17_linear_0_737)" stroke-width="2" stroke-linecap="round" stroke-linejoin="round"/>
<path id="Vector 96" d="M1.094 29.5851C2.33968 30.4338 5.30032 31.8768 7.17752 30.8582" stroke="url(#paint18_linear_0_737)" stroke-width="2" stroke-linecap="round" stroke-linejoin="round"/>
<path id="Vector 100" d="M14.125 37.9825C15.8921 38.0804 19.6002 39.3144 20.2954 43.4669" stroke="url(#paint19_linear_0_737)" stroke-width="2" stroke-linecap="round" stroke-linejoin="round"/>
<path id="Vector 101" d="M13.6035 38.1767C14.7044 39.8416 16.3498 43.7395 14.125 46.0116" stroke="url(#paint20_linear_0_737)" stroke-width="2" stroke-linecap="round" stroke-linejoin="round"/>
</g>
<defs>
<linearGradient id="paint0_linear_0_737" x1="2.74894" y1="35.6488" x2="2.7846" y2="35.2722" gradientUnits="userSpaceOnUse">
<stop offset="0.00961538" stop-color="#F16A75"/>
<stop offset="0.158654" stop-color="#FFC1C6"/>
<stop offset="0.413462" stop-color="#EF5281"/>
<stop offset="0.706731" stop-color="#FD8DAB"/>
<stop offset="0.793269" stop-color="#FF9DA4"/>
<stop offset="0.942308" stop-color="#F05669"/>
</linearGradient>
<linearGradient id="paint1_linear_0_737" x1="14.3279" y1="36.3807" x2="20.678" y2="32.9467" gradientUnits="userSpaceOnUse">
<stop offset="0.00961538" stop-color="#F16A75"/>
<stop offset="0.158654" stop-color="#FFC1C6"/>
<stop offset="0.413462" stop-color="#EF5281"/>
<stop offset="0.706731" stop-color="#FD8DAB"/>
<stop offset="0.793269" stop-color="#FF9DA4"/>
<stop offset="0.942308" stop-color="#F05669"/>
</linearGradient>
<linearGradient id="paint2_linear_0_737" x1="12.7501" y1="36.6824" x2="15.1314" y2="29.016" gradientUnits="userSpaceOnUse">
<stop offset="0.00961538" stop-color="#F16A75"/>
<stop offset="0.158654" stop-color="#FFC1C6"/>
<stop offset="0.413462" stop-color="#EF5281"/>
<stop offset="0.706731" stop-color="#FD8DAB"/>
<stop offset="0.793269" stop-color="#FF9DA4"/>
<stop offset="0.942308" stop-color="#F05669"/>
</linearGradient>
<linearGradient id="paint3_linear_0_737" x1="10.7149" y1="39.1452" x2="5.90982" y2="34.7347" gradientUnits="userSpaceOnUse">
<stop offset="0.00961538" stop-color="#F16A75"/>
<stop offset="0.158654" stop-color="#FFC1C6"/>
<stop offset="0.413462" stop-color="#EF5281"/>
<stop offset="0.706731" stop-color="#FD8DAB"/>
<stop offset="0.793269" stop-color="#FF9DA4"/>
<stop offset="0.942308" stop-color="#F05669"/>
</linearGradient>
<linearGradient id="paint4_linear_0_737" x1="4.84348" y1="42.8067" x2="7.74288" y2="38.3519" gradientUnits="userSpaceOnUse">
<stop offset="0.00961538" stop-color="#F16A75"/>
<stop offset="0.158654" stop-color="#FFC1C6"/>
<stop offset="0.413462" stop-color="#EF5281"/>
<stop offset="0.706731" stop-color="#FD8DAB"/>
<stop offset="0.793269" stop-color="#FF9DA4"/>
<stop offset="0.942308" stop-color="#F05669"/>
</linearGradient>
<linearGradient id="paint5_linear_0_737" x1="5.99439" y1="46.7629" x2="7.06672" y2="43.8753" gradientUnits="userSpaceOnUse">
<stop offset="0.00961538" stop-color="#F16A75"/>
<stop offset="0.158654" stop-color="#FFC1C6"/>
<stop offset="0.413462" stop-color="#EF5281"/>
<stop offset="0.706731" stop-color="#FD8DAB"/>
<stop offset="0.793269" stop-color="#FF9DA4"/>
<stop offset="0.942308" stop-color="#F05669"/>
</linearGradient>
<linearGradient id="paint6_linear_0_737" x1="10.6587" y1="50.5019" x2="13.5774" y2="48.7044" gradientUnits="userSpaceOnUse">
<stop offset="0.00961538" stop-color="#F16A75"/>
<stop offset="0.158654" stop-color="#FFC1C6"/>
<stop offset="0.413462" stop-color="#EF5281"/>
<stop offset="0.706731" stop-color="#FD8DAB"/>
<stop offset="0.793269" stop-color="#FF9DA4"/>
<stop offset="0.942308" stop-color="#F05669"/>
</linearGradient>
<linearGradient id="paint7_linear_0_737" x1="14.8056" y1="51.6213" x2="16.2312" y2="51.2623" gradientUnits="userSpaceOnUse">
<stop offset="0.00961538" stop-color="#F16A75"/>
<stop offset="0.158654" stop-color="#FFC1C6"/>
<stop offset="0.413462" stop-color="#EF5281"/>
<stop offset="0.706731" stop-color="#FD8DAB"/>
<stop offset="0.793269" stop-color="#FF9DA4"/>
<stop offset="0.942308" stop-color="#F05669"/>
</linearGradient>
<linearGradient id="paint8_linear_0_737" x1="17.8906" y1="51.1599" x2="18.4149" y2="51.0976" gradientUnits="userSpaceOnUse">
<stop offset="0.00961538" stop-color="#F16A75"/>
<stop offset="0.158654" stop-color="#FFC1C6"/>
<stop offset="0.413462" stop-color="#EF5281"/>
<stop offset="0.706731" stop-color="#FD8DAB"/>
<stop offset="0.793269" stop-color="#FF9DA4"/>
<stop offset="0.942308" stop-color="#F05669"/>
</linearGradient>
<linearGradient id="paint9_linear_0_737" x1="3.76838" y1="33.5962" x2="37.0848" y2="2.65385" gradientUnits="userSpaceOnUse">
<stop offset="0.00961538" stop-color="#F16A75"/>
<stop offset="0.158654" stop-color="#FFC1C6"/>
<stop offset="0.413462" stop-color="#EF5281"/>
<stop offset="0.706731" stop-color="#FD8DAB"/>
<stop offset="0.793269" stop-color="#FF9DA4"/>
<stop offset="0.942308" stop-color="#F05669"/>
</linearGradient>
<linearGradient id="paint10_linear_0_737" x1="11.8338" y1="26.8817" x2="16.7649" y2="18.0928" gradientUnits="userSpaceOnUse">
<stop offset="0.00961538" stop-color="#F16A75"/>
<stop offset="0.158654" stop-color="#FFC1C6"/>
<stop offset="0.413462" stop-color="#EF5281"/>
<stop offset="0.706731" stop-color="#FD8DAB"/>
<stop offset="0.793269" stop-color="#FF9DA4"/>
<stop offset="0.942308" stop-color="#F05669"/>
</linearGradient>
<linearGradient id="paint11_linear_0_737" x1="5.69638" y1="43.4149" x2="21.9884" y2="29.1007" gradientUnits="userSpaceOnUse">
<stop offset="0.00961538" stop-color="#F16A75"/>
<stop offset="0.158654" stop-color="#FFC1C6"/>
<stop offset="0.413462" stop-color="#EF5281"/>
<stop offset="0.706731" stop-color="#FD8DAB"/>
<stop offset="0.793269" stop-color="#FF9DA4"/>
<stop offset="0.942308" stop-color="#F05669"/>
</linearGradient>
<linearGradient id="paint12_linear_0_737" x1="5.60333" y1="49.6993" x2="20.3151" y2="35.4434" gradientUnits="userSpaceOnUse">
<stop offset="0.00961538" stop-color="#F16A75"/>
<stop offset="0.158654" stop-color="#FFC1C6"/>
<stop offset="0.413462" stop-color="#EF5281"/>
<stop offset="0.706731" stop-color="#FD8DAB"/>
<stop offset="0.793269" stop-color="#FF9DA4"/>
<stop offset="0.942308" stop-color="#F05669"/>
</linearGradient>
<linearGradient id="paint13_linear_0_737" x1="20.1592" y1="49.565" x2="20.8604" y2="49.4233" gradientUnits="userSpaceOnUse">
<stop offset="0.00961538" stop-color="#F16A75"/>
<stop offset="0.158654" stop-color="#FFC1C6"/>
<stop offset="0.413462" stop-color="#EF5281"/>
<stop offset="0.706731" stop-color="#FD8DAB"/>
<stop offset="0.793269" stop-color="#FF9DA4"/>
<stop offset="0.942308" stop-color="#F05669"/>
</linearGradient>
<linearGradient id="paint14_linear_0_737" x1="23.4872" y1="19.576" x2="37.7413" y2="11.2265" gradientUnits="userSpaceOnUse">
<stop offset="0.00961538" stop-color="#F16A75"/>
<stop offset="0.158654" stop-color="#FFC1C6"/>
<stop offset="0.413462" stop-color="#EF5281"/>
<stop offset="0.706731" stop-color="#FD8DAB"/>
<stop offset="0.793269" stop-color="#FF9DA4"/>
<stop offset="0.942308" stop-color="#F05669"/>
</linearGradient>
<linearGradient id="paint15_linear_0_737" x1="11.0114" y1="19.3608" x2="24.8939" y2="12.7169" gradientUnits="userSpaceOnUse">
<stop offset="0.00961538" stop-color="#F16A75"/>
<stop offset="0.158654" stop-color="#FFC1C6"/>
<stop offset="0.413462" stop-color="#EF5281"/>
<stop offset="0.706731" stop-color="#FD8DAB"/>
<stop offset="0.793269" stop-color="#FF9DA4"/>
<stop offset="0.942308" stop-color="#F05669"/>
</linearGradient>
<linearGradient id="paint16_linear_0_737" x1="5.84189" y1="22.8403" x2="14.873" y2="17.3218" gradientUnits="userSpaceOnUse">
<stop offset="0.00961538" stop-color="#F16A75"/>
<stop offset="0.158654" stop-color="#FFC1C6"/>
<stop offset="0.413462" stop-color="#EF5281"/>
<stop offset="0.706731" stop-color="#FD8DAB"/>
<stop offset="0.793269" stop-color="#FF9DA4"/>
<stop offset="0.942308" stop-color="#F05669"/>
</linearGradient>
<linearGradient id="paint17_linear_0_737" x1="2.25366" y1="27.0371" x2="7.22051" y2="20.2249" gradientUnits="userSpaceOnUse">
<stop offset="0.00961538" stop-color="#F16A75"/>
<stop offset="0.158654" stop-color="#FFC1C6"/>
<stop offset="0.413462" stop-color="#EF5281"/>
<stop offset="0.706731" stop-color="#FD8DAB"/>
<stop offset="0.793269" stop-color="#FF9DA4"/>
<stop offset="0.942308" stop-color="#F05669"/>
</linearGradient>
<linearGradient id="paint18_linear_0_737" x1="1.5115" y1="30.9762" x2="2.30634" y2="28.3667" gradientUnits="userSpaceOnUse">
<stop offset="0.00961538" stop-color="#F16A75"/>
<stop offset="0.158654" stop-color="#FFC1C6"/>
<stop offset="0.413462" stop-color="#EF5281"/>
<stop offset="0.706731" stop-color="#FD8DAB"/>
<stop offset="0.793269" stop-color="#FF9DA4"/>
<stop offset="0.942308" stop-color="#F05669"/>
</linearGradient>
<linearGradient id="paint19_linear_0_737" x1="14.5485" y1="42.6819" x2="19.3645" y2="37.9347" gradientUnits="userSpaceOnUse">
<stop offset="0.00961538" stop-color="#F16A75"/>
<stop offset="0.158654" stop-color="#FFC1C6"/>
<stop offset="0.413462" stop-color="#EF5281"/>
<stop offset="0.706731" stop-color="#FD8DAB"/>
<stop offset="0.793269" stop-color="#FF9DA4"/>
<stop offset="0.942308" stop-color="#F05669"/>
</linearGradient>
<linearGradient id="paint20_linear_0_737" x1="13.7151" y1="44.8901" x2="16.1365" y2="44.45" gradientUnits="userSpaceOnUse">
<stop offset="0.00961538" stop-color="#F16A75"/>
<stop offset="0.158654" stop-color="#FFC1C6"/>
<stop offset="0.413462" stop-color="#EF5281"/>
<stop offset="0.706731" stop-color="#FD8DAB"/>
<stop offset="0.793269" stop-color="#FF9DA4"/>
<stop offset="0.942308" stop-color="#F05669"/>
</linearGradient>
</defs>
</svg>
