<svg preserveAspectRatio="none" overflow="visible" style="display: block;" width="40.9455" height="30.8302" viewBox="0 0 40.9455 30.8302" fill="none" xmlns="http://www.w3.org/2000/svg">
<g id="&#236;&#151;&#188;&#236;&#134;&#140;&#235;&#191;&#148;">
<path id="Vector 102" d="M39.9453 21.1521C38.8347 13.6525 32.2977 -0.585924 15.035 1.16219C9.95768 1.67474 0.0570047 6.13133 1.07246 19.8572C1.5749 23.715 5.07081 31.0743 15.035 29.6499C17.0712 29.1374 21.0008 26.9954 20.4296 22.528C20.3502 21.368 19.5569 19.1289 17.0183 19.4526C18.2611 20.7475 18.0496 25.1099 14.321 25.8462C11.8617 26.3317 6.60986 23.9524 7.49838 18.3196C8.31815 15.7567 11.5602 10.9386 17.9703 12.1688C21.5931 13.0051 28.7291 16.6185 27.5868 27.3014" stroke="url(#paint0_linear_0_496)" stroke-width="2" stroke-linecap="round" stroke-linejoin="round"/>
<path id="Vector 103" d="M26.7061 21.8309C26.445 22.3163 26.6274 22.9244 27.1133 23.1892C27.5993 23.4539 28.2049 23.275 28.466 22.7896L27.586 22.3103L26.7061 21.8309ZM38.6209 18.7975C39.131 19.0112 39.7148 18.771 39.9248 18.2611C40.1348 17.7511 39.8915 17.1645 39.3814 16.9508L39.0011 17.8741L38.6209 18.7975ZM27.586 22.3103L28.466 22.7896C29.1643 21.4913 30.3441 19.9009 32.0113 18.9374C33.6263 18.0041 35.7803 17.6074 38.6209 18.7975L39.0011 17.8741L39.3814 16.9508C35.9688 15.5212 33.1614 15.9552 31.0053 17.2012C28.9014 18.417 27.5003 20.3544 26.7061 21.8309L27.586 22.3103Z" fill="url(#paint1_linear_0_496)"/>
<path id="Vector 104" d="M24.0105 16.2399C23.8284 16.7608 24.1022 17.3352 24.6221 17.5228C25.142 17.7104 25.7111 17.4401 25.8933 16.9192L24.9519 16.5796L24.0105 16.2399ZM34.9496 10.5498C35.4994 10.5903 35.9739 10.1756 36.0094 9.62338C36.045 9.0712 35.6282 8.59073 35.0784 8.55022L35.014 9.55003L34.9496 10.5498ZM24.9519 16.5796L25.8933 16.9192C26.287 15.7933 27.2344 14.0747 28.7589 12.7036C30.2637 11.3503 32.3035 10.3548 34.9496 10.5498L35.014 9.55003L35.0784 8.55022C31.7941 8.30818 29.2444 9.56485 27.4215 11.2043C25.6184 12.8259 24.4998 14.8406 24.0105 16.2399L24.9519 16.5796Z" fill="url(#paint2_linear_0_496)"/>
<path id="Vector 105" d="M20.1703 13.3147C20.2328 13.8659 20.7267 14.2659 21.2736 14.2082C21.8205 14.1505 22.2132 13.657 22.1508 13.1059L21.1605 13.2103L20.1703 13.3147ZM28.5493 4.82126C29.0864 4.70511 29.4242 4.17173 29.3037 3.62992C29.1833 3.0881 28.6503 2.74303 28.1132 2.85917L28.3312 3.84021L28.5493 4.82126ZM21.1605 13.2103L22.1508 13.1059C22.0267 12.011 22.1882 10.2311 23.0987 8.58739C23.9876 6.98269 25.6163 5.4555 28.5493 4.82126L28.3312 3.84021L28.1132 2.85917C24.6178 3.615 22.517 5.50078 21.3556 7.59756C20.2158 9.6553 20.0061 11.8654 20.1703 13.3147L21.1605 13.2103Z" fill="url(#paint3_linear_0_496)"/>
<path id="Vector 106" d="M16.6203 12.0066C15.1923 10.1182 13.3835 5.27316 17.5723 1" stroke="url(#paint4_linear_0_496)" stroke-width="2" stroke-linecap="round" stroke-linejoin="round"/>
<path id="Vector 107" d="M11.4661 13.2211C9.53567 12.169 6.08736 8.86697 7.73747 4.07585" stroke="url(#paint5_linear_0_496)" stroke-width="2" stroke-linecap="round" stroke-linejoin="round"/>
<path id="Vector 108" d="M1.86619 11.7647C2.07775 13.6261 3.62737 17.2357 8.13345 16.7825" stroke="url(#paint6_linear_0_496)" stroke-width="2" stroke-linecap="round" stroke-linejoin="round"/>
<path id="Vector 109" d="M1.49705 20.0923C3.67122 22.3102 4.75392 22.738 7.41949 20.6662" stroke="url(#paint7_linear_0_496)" stroke-width="2" stroke-linecap="round" stroke-linejoin="round"/>
<path id="Vector 110" d="M3.84971 26.0089C5.14547 26.3057 7.91153 26.2355 8.60965 23.581" stroke="url(#paint8_linear_0_496)" stroke-width="2" stroke-linecap="round" stroke-linejoin="round"/>
<path id="Vector 111" d="M10.7652 25.1182C11.3215 25.9371 11.8833 27.893 9.68049 29.1647" stroke="url(#paint9_linear_0_496)" stroke-width="2" stroke-linecap="round" stroke-linejoin="round"/>
<path id="Vector 114" d="M17.6523 22.3659C18.0225 22.0421 19.0803 21.5889 20.3496 22.3659" stroke="url(#paint10_linear_0_496)" stroke-width="2" stroke-linecap="round" stroke-linejoin="round"/>
<path id="Vector 112" d="M14.2939 26.0895C14.927 26.3824 16.0775 27.4075 15.6151 29.1649" stroke="url(#paint11_linear_0_496)" stroke-width="2" stroke-linecap="round" stroke-linejoin="round"/>
<path id="Vector 113" d="M17.019 24.3899C17.733 24.282 19.2562 24.5518 19.637 26.4941" stroke="url(#paint12_linear_0_496)" stroke-width="2" stroke-linecap="round" stroke-linejoin="round"/>
</g>
<defs>
<linearGradient id="paint0_linear_0_496" x1="3.67267" y1="25.7058" x2="28.6216" y2="-3.83686" gradientUnits="userSpaceOnUse">
<stop offset="0.00961538" stop-color="#F16A75"/>
<stop offset="0.158654" stop-color="#FFC1C6"/>
<stop offset="0.413462" stop-color="#EF5281"/>
<stop offset="0.706731" stop-color="#FD8DAB"/>
<stop offset="0.793269" stop-color="#FF9DA4"/>
<stop offset="0.942308" stop-color="#F05669"/>
</linearGradient>
<linearGradient id="paint1_linear_0_496" x1="28.4556" y1="21.4996" x2="35.2026" y2="14.9167" gradientUnits="userSpaceOnUse">
<stop offset="0.00961538" stop-color="#F16A75"/>
<stop offset="0.158654" stop-color="#FFC1C6"/>
<stop offset="0.413462" stop-color="#EF5281"/>
<stop offset="0.706731" stop-color="#FD8DAB"/>
<stop offset="0.793269" stop-color="#FF9DA4"/>
<stop offset="0.942308" stop-color="#F05669"/>
</linearGradient>
<linearGradient id="paint2_linear_0_496" x1="25.8212" y1="15.4171" x2="34.9326" y2="11.8324" gradientUnits="userSpaceOnUse">
<stop offset="0.00961538" stop-color="#F16A75"/>
<stop offset="0.158654" stop-color="#FFC1C6"/>
<stop offset="0.413462" stop-color="#EF5281"/>
<stop offset="0.706731" stop-color="#FD8DAB"/>
<stop offset="0.793269" stop-color="#FF9DA4"/>
<stop offset="0.942308" stop-color="#F05669"/>
</linearGradient>
<linearGradient id="paint3_linear_0_496" x1="21.2943" y1="11.5791" x2="28.0886" y2="11.2186" gradientUnits="userSpaceOnUse">
<stop offset="0.00961538" stop-color="#F16A75"/>
<stop offset="0.158654" stop-color="#FFC1C6"/>
<stop offset="0.413462" stop-color="#EF5281"/>
<stop offset="0.706731" stop-color="#FD8DAB"/>
<stop offset="0.793269" stop-color="#FF9DA4"/>
<stop offset="0.942308" stop-color="#F05669"/>
</linearGradient>
<linearGradient id="paint4_linear_0_496" x1="15.1561" y1="10.4312" x2="18.9849" y2="9.64054" gradientUnits="userSpaceOnUse">
<stop offset="0.00961538" stop-color="#F16A75"/>
<stop offset="0.158654" stop-color="#FFC1C6"/>
<stop offset="0.413462" stop-color="#EF5281"/>
<stop offset="0.706731" stop-color="#FD8DAB"/>
<stop offset="0.793269" stop-color="#FF9DA4"/>
<stop offset="0.942308" stop-color="#F05669"/>
</linearGradient>
<linearGradient id="paint5_linear_0_496" x1="7.58891" y1="11.912" x2="13.1159" y2="9.70784" gradientUnits="userSpaceOnUse">
<stop offset="0.00961538" stop-color="#F16A75"/>
<stop offset="0.158654" stop-color="#FFC1C6"/>
<stop offset="0.413462" stop-color="#EF5281"/>
<stop offset="0.706731" stop-color="#FD8DAB"/>
<stop offset="0.793269" stop-color="#FF9DA4"/>
<stop offset="0.942308" stop-color="#F05669"/>
</linearGradient>
<linearGradient id="paint6_linear_0_496" x1="2.2963" y1="16.0977" x2="6.72215" y2="11.2918" gradientUnits="userSpaceOnUse">
<stop offset="0.00961538" stop-color="#F16A75"/>
<stop offset="0.158654" stop-color="#FFC1C6"/>
<stop offset="0.413462" stop-color="#EF5281"/>
<stop offset="0.706731" stop-color="#FD8DAB"/>
<stop offset="0.793269" stop-color="#FF9DA4"/>
<stop offset="0.942308" stop-color="#F05669"/>
</linearGradient>
<linearGradient id="paint7_linear_0_496" x1="1.9035" y1="21.7352" x2="2.99849" y2="18.772" gradientUnits="userSpaceOnUse">
<stop offset="0.00961538" stop-color="#F16A75"/>
<stop offset="0.158654" stop-color="#FFC1C6"/>
<stop offset="0.413462" stop-color="#EF5281"/>
<stop offset="0.706731" stop-color="#FD8DAB"/>
<stop offset="0.793269" stop-color="#FF9DA4"/>
<stop offset="0.942308" stop-color="#F05669"/>
</linearGradient>
<linearGradient id="paint8_linear_0_496" x1="4.17637" y1="25.7639" x2="6.167" y2="22.5053" gradientUnits="userSpaceOnUse">
<stop offset="0.00961538" stop-color="#F16A75"/>
<stop offset="0.158654" stop-color="#FFC1C6"/>
<stop offset="0.413462" stop-color="#EF5281"/>
<stop offset="0.706731" stop-color="#FD8DAB"/>
<stop offset="0.793269" stop-color="#FF9DA4"/>
<stop offset="0.942308" stop-color="#F05669"/>
</linearGradient>
<linearGradient id="paint9_linear_0_496" x1="9.78938" y1="28.5855" x2="11.9733" y2="27.8353" gradientUnits="userSpaceOnUse">
<stop offset="0.00961538" stop-color="#F16A75"/>
<stop offset="0.158654" stop-color="#FFC1C6"/>
<stop offset="0.413462" stop-color="#EF5281"/>
<stop offset="0.706731" stop-color="#FD8DAB"/>
<stop offset="0.793269" stop-color="#FF9DA4"/>
<stop offset="0.942308" stop-color="#F05669"/>
</linearGradient>
<linearGradient id="paint10_linear_0_496" x1="17.8374" y1="22.3045" x2="17.9698" y2="21.575" gradientUnits="userSpaceOnUse">
<stop offset="0.00961538" stop-color="#F16A75"/>
<stop offset="0.158654" stop-color="#FFC1C6"/>
<stop offset="0.413462" stop-color="#EF5281"/>
<stop offset="0.706731" stop-color="#FD8DAB"/>
<stop offset="0.793269" stop-color="#FF9DA4"/>
<stop offset="0.942308" stop-color="#F05669"/>
</linearGradient>
<linearGradient id="paint11_linear_0_496" x1="14.3919" y1="28.7247" x2="16.2774" y2="27.9577" gradientUnits="userSpaceOnUse">
<stop offset="0.00961538" stop-color="#F16A75"/>
<stop offset="0.158654" stop-color="#FFC1C6"/>
<stop offset="0.413462" stop-color="#EF5281"/>
<stop offset="0.706731" stop-color="#FD8DAB"/>
<stop offset="0.793269" stop-color="#FF9DA4"/>
<stop offset="0.942308" stop-color="#F05669"/>
</linearGradient>
<linearGradient id="paint12_linear_0_496" x1="17.1987" y1="26.19" x2="19.059" y2="24.1816" gradientUnits="userSpaceOnUse">
<stop offset="0.00961538" stop-color="#F16A75"/>
<stop offset="0.158654" stop-color="#FFC1C6"/>
<stop offset="0.413462" stop-color="#EF5281"/>
<stop offset="0.706731" stop-color="#FD8DAB"/>
<stop offset="0.793269" stop-color="#FF9DA4"/>
<stop offset="0.942308" stop-color="#F05669"/>
</linearGradient>
</defs>
</svg>
